PathFileType	4	(X/Y/Z)	C:\Data\4407\4407cd01.trc
DataRate	CameraRate	NumFrames	NumMarkers	Units	OrigDataRate	OrigDataStartFrame	OrigNumFrames
200.00	200.00	       9	33	mm	200.00	113	       451
Frame#	Time	Offset			RShoulder			RUpperArm			RElbow			RForearm			RWrist			LShoulder			LUpperArm			LElbow			LForearm			LWrist			LPSIS			RPSIS			RASIS			RThigh			RKnee			RShank			RAnkle			RHeel			RLat5			RToe			LASIS			LThigh			LKnee			LShank			LAnkle			LHeel			LLat5			LToe			RMed.Knee			LMed.Knee			RMed.Ankle			LMed.Ankle			
		X1	Y1	Z1	X2	Y2	Z2	X3	Y3	Z3	X4	Y4	Z4	X5	Y5	Z5	X6	Y6	Z6	X7	Y7	Z7	X8	Y8	Z8	X9	Y9	Z9	X10	Y10	Z10	X11	Y11	Z11	X12	Y12	Z12	X13	Y13	Z13	X14	Y14	Z14	X15	Y15	Z15	X16	Y16	Z16	X17	Y17	Z17	X18	Y18	Z18	X19	Y19	Z19	X20	Y20	Z20	X21	Y21	Z21	X22	Y22	Z22	X23	Y23	Z23	X24	Y24	Z24	X25	Y25	Z25	X26	Y26	Z26	X27	Y27	Z27	X28	Y28	Z28	X29	Y29	Z29	X30	Y30	Z30	X31	Y31	Z31	X32	Y32	Z32	X33	Y33	Z33	

113	0.560	329.92331	-307.44208	1396.11182	418.60562	-207.13315	1539.69800	539.81378	-274.42072	1406.07202	705.29004	-267.51315	1406.83215	847.55066	-255.31572	1327.32031	966.64911	-196.70947	1380.57593	131.29553	-214.81966	1541.87012	-5.40967	-283.40158	1388.84338	-136.52753	-287.42917	1398.09912	-277.82526	-278.06747	1328.29114	-420.40558	-208.77950	1346.78784	252.77258	-312.72827	1031.63635	302.28894	-312.24185	1033.61462	397.80209	-98.17258	1019.30634	370.96198	-102.89352	691.92297	453.05093	-202.96483	520.30054	420.79794	-174.58261	444.15506	462.50186	-247.30467	110.88287	417.81247	-303.43640	76.01096	516.04565	-108.13156	62.12629	410.56549	-92.29010	57.27451	144.06493	-104.53711	997.97479	148.17374	-112.83585	663.56293	99.62231	-206.05159	519.22015	132.81787	-178.55342	444.19321	93.17258	-267.00586	111.11249	145.78799	-318.94284	80.86346	41.54530	-122.03313	57.87939	150.38594	-105.25393	49.10979	342.69638	-197.97050	501.23141	202.94574	-193.21785	480.88934	376.68588	-207.85872	121.45644	178.93706	-222.41943	116.61035	
114	0.565	330.00183	-307.43246	1396.13037	418.62329	-207.08592	1539.64209	539.79175	-274.41486	1406.04443	705.23572	-267.54291	1406.79590	847.56372	-255.30133	1327.45605	966.60370	-196.86302	1380.57727	131.27426	-214.77118	1541.87708	-5.38805	-283.27408	1388.88245	-136.43407	-287.28088	1398.17419	-277.78635	-277.99234	1328.40710	-420.41891	-208.70486	1346.91760	252.78432	-312.71738	1031.67200	302.31339	-312.18396	1033.64978	397.76108	-98.11176	1019.31885	371.04742	-102.91174	691.92249	453.03912	-202.94600	520.21637	420.76175	-174.64610	444.29349	462.79956	-247.34366	110.85277	417.88123	-303.39542	76.03064	516.00580	-108.09135	62.08969	410.50806	-92.24898	57.28385	144.06894	-104.50040	997.97058	148.21706	-112.56556	663.54468	99.61775	-206.03249	519.24377	132.78947	-178.56973	444.19965	93.20488	-266.97955	111.09760	145.77211	-318.91873	80.88140	41.51171	-122.04906	57.88724	150.38351	-105.23178	49.11560	342.73309	-197.96214	501.22000	202.92538	-193.19612	480.91470	376.69669	-207.88586	121.44508	178.93837	-222.42827	116.64296	
115	0.570	329.91183	-307.37427	1396.16968	418.61526	-207.10748	1539.66699	539.74017	-274.41614	1406.05151	705.22656	-267.44418	1406.72156	847.55139	-255.31551	1327.30457	966.64191	-196.70335	1380.56226	131.32974	-214.70961	1541.90027	-5.41740	-283.23663	1388.90417	-136.53770	-287.32559	1398.21838	-277.80652	-277.98279	1328.48401	-420.50659	-208.53954	1347.04504	252.76459	-312.62827	1031.67981	302.29401	-312.09570	1033.62781	397.77994	-98.09365	1019.32733	370.94638	-102.79899	691.93872	452.96866	-202.85027	520.25122	420.81601	-174.58093	444.23767	462.54764	-247.22252	110.86850	417.87210	-303.41776	76.02209	515.98755	-108.09502	62.15386	410.58594	-92.23727	57.30868	144.05325	-104.44384	997.97522	148.11127	-112.84267	663.47021	99.58635	-206.08078	519.18823	132.79112	-178.54140	444.18314	93.16591	-267.03354	111.12756	145.73727	-318.95624	80.90280	41.55976	-122.01334	57.87848	150.40880	-105.20928	49.07333	342.66888	-197.89066	501.27737	202.84793	-193.11070	480.87433	376.69220	-207.82901	121.45621	178.94334	-222.43823	116.61323	
116	0.575	329.91461	-307.32211	1396.14929	418.62805	-207.04593	1539.62231	539.73492	-274.36850	1405.97925	705.19885	-267.47852	1406.72546	847.54047	-255.31386	1327.28955	966.70581	-196.80792	1380.57471	131.33385	-214.67197	1541.90918	-5.37093	-283.13000	1388.95544	-136.54478	-287.18839	1398.26111	-277.85950	-277.92896	1328.57312	-420.51923	-208.60367	1347.09802	252.76462	-312.60306	1031.69153	302.28375	-312.08624	1033.61133	397.72171	-97.97707	1019.28510	370.89301	-102.86040	691.88428	453.00742	-202.89839	520.25189	420.77386	-174.56209	444.26129	462.52573	-247.25122	110.87742	417.90292	-303.35562	76.00819	515.95148	-108.09135	62.08169	410.57217	-92.27723	57.30676	143.97562	-104.44861	997.98480	148.19719	-112.62997	663.56073	99.58302	-206.03493	519.24243	132.78435	-178.50053	444.13983	93.17848	-267.02176	111.11305	145.74596	-318.93240	80.94778	41.55527	-121.99438	57.88398	150.33762	-105.23626	49.14067	342.63693	-197.92264	501.20941	202.86835	-193.12148	480.93900	376.66046	-207.86871	121.46178	178.96002	-222.35078	116.63244	
117	0.580	329.89456	-307.29504	1396.16211	418.63397	-207.03128	1539.59863	539.76953	-274.30072	1405.88477	705.23761	-267.44894	1406.67004	847.54858	-255.30231	1327.27075	966.67303	-196.74240	1380.58350	131.32089	-214.58922	1541.94763	-5.42459	-283.08960	1388.94714	-136.51541	-287.13150	1398.29309	-277.85376	-277.82901	1328.62561	-420.52951	-208.56464	1347.15259	252.66750	-312.59619	1031.73303	302.25064	-312.03317	1033.62769	397.70895	-98.00257	1019.27899	370.92532	-102.75588	691.93079	452.97394	-202.91058	520.24066	420.76764	-174.57254	444.17261	462.82883	-247.26157	110.84923	417.88242	-303.36984	76.09115	515.96814	-108.11678	62.13974	410.50720	-92.25918	57.25764	143.88776	-104.42935	997.97522	148.12428	-112.73827	663.46771	99.50908	-206.03856	519.21484	132.68188	-178.42131	444.24454	93.18732	-267.01282	111.09361	145.79826	-318.95163	80.92160	41.55890	-121.98807	57.81892	150.36894	-105.25365	49.18562	342.64764	-197.91162	501.28079	202.91512	-193.22368	480.93100	376.67889	-207.83910	121.45243	178.91504	-222.31273	116.59071	
118	0.585	329.91266	-307.31210	1396.14294	418.64023	-207.01677	1539.59607	539.72302	-274.18961	1405.86011	705.23682	-267.38498	1406.63159	847.52954	-255.24774	1327.26526	966.63800	-196.86937	1380.53760	131.33205	-214.51266	1541.95251	-5.38970	-283.04330	1388.98010	-136.56308	-287.00089	1398.34595	-277.90628	-277.79129	1328.71204	-420.58743	-208.54799	1347.25232	252.62344	-312.62811	1031.70898	302.20450	-312.02252	1033.63757	397.65073	-97.92763	1019.27216	370.83572	-102.75528	691.91211	453.03094	-202.87010	520.29065	420.72015	-174.42784	444.22250	462.49445	-247.30518	110.88766	417.85098	-303.36462	76.01741	515.96027	-108.01829	62.08175	410.50247	-92.28082	57.26093	143.96590	-104.38234	998.00641	147.98535	-112.84182	663.44019	99.52396	-205.98546	519.17908	132.65999	-178.44008	444.21725	93.15332	-267.02975	111.12572	145.77029	-318.91217	80.94731	41.49446	-122.02894	57.89772	150.33739	-105.17421	49.08538	342.68423	-197.82744	501.26718	202.83694	-193.08980	480.93188	376.68079	-207.81459	121.46947	178.94099	-222.42250	116.61856	
119	0.590	329.85776	-307.28415	1396.14233	418.63449	-207.02257	1539.59534	539.66461	-274.15723	1405.78247	705.19049	-267.40079	1406.61243	847.63477	-255.18451	1327.24438	966.65076	-196.90131	1380.53577	131.32100	-214.45233	1541.94702	-5.46034	-282.98401	1388.98169	-136.56964	-286.98602	1398.37354	-277.94186	-277.75314	1328.70972	-420.57227	-208.47250	1347.33337	252.62059	-312.58533	1031.73962	302.19974	-311.94077	1033.64661	397.64404	-97.89511	1019.27002	370.78073	-102.74942	691.84967	452.96442	-202.85344	520.26141	420.67642	-174.33685	444.31357	462.49649	-247.26393	110.89423	417.84833	-303.42181	76.10879	516.01563	-108.08425	62.04609	410.51926	-92.25556	57.27905	143.90062	-104.33683	997.98553	148.01079	-112.76031	663.41949	99.52946	-206.00912	519.21051	132.64845	-178.41605	444.25217	93.17341	-267.01996	111.09270	145.72330	-318.97449	80.97681	41.53019	-121.98580	57.86745	150.34326	-105.21458	49.13725	342.55649	-197.90672	501.27356	202.84439	-193.10284	480.92526	376.69962	-207.80960	121.49982	178.93005	-222.40320	116.62498	
120	0.595	329.85706	-307.21930	1396.15967	418.66083	-206.98019	1539.57422	539.67590	-274.18207	1405.80322	705.10986	-267.34283	1406.58716	847.53210	-255.18549	1327.23706	966.61285	-196.87462	1380.56140	131.35091	-214.45801	1541.98389	-5.55259	-282.87265	1388.93616	-136.57063	-286.82681	1398.41858	-277.87579	-277.70514	1328.88708	-420.60223	-208.48103	1347.39746	252.63258	-312.45273	1031.74829	302.22998	-311.92801	1033.63635	397.63123	-97.88336	1019.26904	370.81137	-102.69715	691.95172	452.87540	-202.77884	520.27008	420.67859	-174.34776	444.29633	462.49127	-247.28064	110.89445	417.84003	-303.39365	76.09027	515.97614	-108.00517	62.08251	410.54080	-92.24570	57.26663	143.83801	-104.28062	997.96368	147.94724	-112.69083	663.45160	99.52370	-205.93741	519.22064	132.60066	-178.38908	444.24661	93.16237	-267.01324	111.10984	145.78928	-318.90765	80.97063	41.49369	-122.04590	57.87057	150.29695	-105.27042	49.11826	342.47308	-197.93918	501.22461	202.91315	-193.09937	480.93097	376.70126	-207.75464	121.49842	178.93559	-222.36823	116.63663	
121	0.600	329.81735	-307.21954	1396.13220	418.62689	-206.97063	1539.53967	539.63232	-274.03610	1405.71545	705.17267	-267.29852	1406.59460	847.53290	-255.13939	1327.22534	966.69794	-196.72552	1380.53845	131.34622	-214.41150	1541.97656	-5.54135	-282.72467	1388.92029	-136.62315	-286.78110	1398.46265	-277.93430	-277.62375	1328.90588	-420.57736	-208.50128	1347.43262	252.58797	-312.39224	1031.74292	302.16681	-311.86557	1033.64722	397.56296	-97.77132	1019.26367	370.70755	-102.68163	691.86169	452.96527	-202.81531	520.28412	420.66879	-174.26099	444.28137	462.52905	-247.19534	110.88593	417.88922	-303.38696	76.12958	515.96985	-108.05832	62.07204	410.55997	-92.21233	57.27479	143.82500	-104.23788	997.97827	148.01195	-112.54569	663.55573	99.51163	-205.92958	519.20313	132.59618	-178.42697	444.22644	93.15964	-266.96899	111.12899	145.77696	-318.89011	80.88704	41.48771	-122.03358	57.86775	150.41685	-105.16650	49.10882	342.46307	-197.88004	501.26462	202.79973	-193.02971	480.97147	376.67941	-207.82480	121.46756	178.93773	-222.32869	116.65484	
